<?xml version="1.0" encoding="UTF-8"?>
<!DOCTYPE svg PUBLIC "-//W3C//DTD SVG 1.1//EN" "http://www.w3.org/Graphics/SVG/1.1/DTD/svg11.dtd">
<!-- Creator: CorelDRAW 2020 (64-Bit) -->
<svg xmlns="http://www.w3.org/2000/svg" xml:space="preserve" width="80px" height="80px" version="1.1" shape-rendering="geometricPrecision" text-rendering="geometricPrecision" image-rendering="optimizeQuality" fill-rule="evenodd" clip-rule="evenodd"
viewBox="0 0 80 79.88"
 xmlns:xlink="http://www.w3.org/1999/xlink"
 xmlns:xodm="http://www.corel.com/coreldraw/odm/2003">
 <g id="Слой_x0020_1">
  <metadata id="CorelCorpID_0Corel-Layer"/>
  <g id="_1167929295104">
   <g>
    <path fill="none" stroke="#242656" stroke-width="2.37" stroke-miterlimit="22.9256" d="M63.33 49.71l8.11 0 0 9.3c0,2.92 -2.38,5.3 -5.29,5.3l-1.49 0c-2.92,0 -5.3,-2.38 -5.3,-5.3l0 -5.33c0,-2.19 1.79,-3.97 3.97,-3.97z"/>
    <path fill="none" stroke="#242656" stroke-width="2.37" stroke-miterlimit="22.9256" d="M71.38 52.6c-0.34,1.85 -1.97,3.27 -3.91,3.27l-8.11 0 0 -2.24"/>
    <path fill="none" stroke="#242656" stroke-width="2.37" stroke-miterlimit="22.9256" d="M62.34 64.28l6.13 0c5.69,0 10.35,4.65 10.35,10.34l0 4.08 -26.83 0 0 -4.08c0,-5.69 4.66,-10.34 10.35,-10.34z"/>
    <polyline fill="none" stroke="#242656" stroke-width="2.37" stroke-miterlimit="22.9256" points="70.31,64.51 65.42,69.39 60.5,64.46 60.63,64.33 "/>
   </g>
   <g>
    <path fill="none" stroke="#242656" stroke-width="2.37" stroke-miterlimit="22.9256" d="M12.53 49.71l8.1 0 0 9.3c0,2.92 -2.38,5.3 -5.29,5.3l-1.49 0c-2.91,0 -5.29,-2.38 -5.29,-5.3l0 -5.33c0,-2.19 1.78,-3.97 3.97,-3.97z"/>
    <path fill="none" stroke="#242656" stroke-width="2.37" stroke-miterlimit="22.9256" d="M20.57 52.6c-0.33,1.85 -1.96,3.27 -3.9,3.27l-8.11 0 0 -2.24"/>
    <path fill="none" stroke="#242656" stroke-width="2.37" stroke-miterlimit="22.9256" d="M11.53 64.28l6.13 0c5.69,0 10.35,4.65 10.35,10.34l0 4.08 -26.83 0 0 -4.08c0,-5.69 4.66,-10.34 10.35,-10.34z"/>
    <polyline fill="none" stroke="#242656" stroke-width="2.37" stroke-miterlimit="22.9256" points="19.5,64.51 14.62,69.39 9.69,64.46 9.83,64.33 "/>
   </g>
   <path fill="none" stroke="#242656" stroke-width="2.37" stroke-miterlimit="22.9256" d="M37.33 40.31l10.74 0 0 12.33c0,3.85 -3.16,7 -7.01,7l-1.98 0c-3.85,0 -7,-3.15 -7,-7l0 -7.07c0,-2.89 2.36,-5.26 5.25,-5.26z"/>
   <path fill="none" stroke="#242656" stroke-width="2.37" stroke-miterlimit="22.9256" d="M47.98 44.15c-0.44,2.45 -2.6,4.32 -5.17,4.32l-10.74 0 0 -2.96"/>
   <path fill="#FEFEFE" stroke="#242656" stroke-width="2.37" stroke-miterlimit="22.9256" d="M36.01 59.61l8.12 0c7.54,0 13.7,6.16 13.7,13.69l0 5.4 -35.52 0 0 -5.4c0,-7.53 6.17,-13.69 13.7,-13.69z"/>
   <polyline fill="none" stroke="#242656" stroke-width="2.37" stroke-miterlimit="22.9256" points="46.57,59.91 40.1,66.38 33.58,59.85 33.76,59.67 "/>
   <circle fill="#242656" cx="40.07" cy="74.54" r="1.09"/>
   <line fill="none" stroke="#242656" stroke-width="2.37" stroke-linecap="round" stroke-linejoin="round" stroke-miterlimit="22.9256" x1="22.71" y1="74.54" x2="35.52" y2= "74.54" />
   <g>
    <path fill="#FF2234" fill-rule="nonzero" d="M43.17 0.26c3.11,0.63 5.88,2.16 8.03,4.31 2.86,2.86 4.63,6.81 4.63,11.18 0,4.36 -1.77,8.31 -4.63,11.17 -2.86,2.86 -6.81,4.63 -11.17,4.63 -4.36,0 -8.32,-1.77 -11.18,-4.63 -2.85,-2.86 -4.62,-6.81 -4.62,-11.17 0,-4.36 1.77,-8.31 4.62,-11.17 2.17,-2.18 4.98,-3.72 8.11,-4.34 -0.08,0.29 -0.13,0.59 -0.13,0.9 0,0.53 0.13,1.03 0.36,1.47 -2.57,0.56 -4.87,1.85 -6.66,3.64 -2.43,2.43 -3.94,5.79 -3.94,9.5 0,3.71 1.51,7.07 3.94,9.5 2.43,2.43 5.79,3.93 9.5,3.93 3.71,0 7.07,-1.5 9.5,-3.93 2.43,-2.43 3.93,-5.79 3.93,-9.5 0,-3.71 -1.5,-7.07 -3.93,-9.5 -1.78,-1.78 -4.05,-3.06 -6.59,-3.62 0.23,-0.44 0.36,-0.95 0.36,-1.49 0,-0.3 -0.05,-0.6 -0.13,-0.88zm-2.29 0.07c-0.21,-0.2 -0.5,-0.33 -0.81,-0.33 -0.32,0 -0.61,0.13 -0.81,0.33 -0.21,0.21 -0.34,0.5 -0.34,0.81 0,0.32 0.13,0.61 0.34,0.81 0.2,0.21 0.49,0.34 0.81,0.34 0.31,0 0.6,-0.13 0.8,-0.34 0.21,-0.2 0.34,-0.49 0.34,-0.81 0,-0.31 -0.13,-0.6 -0.33,-0.81z"/>
    <path fill="none" stroke="#FF2234" stroke-width="2.37" stroke-linecap="round" stroke-linejoin="round" stroke-miterlimit="22.9256" d="M37.55 20.49l9.75 -9.43m-9.87 9.39l-4.68 -4.52"/>
   </g>
  </g>
 </g>
</svg>
