<?xml version="1.0" encoding="UTF-8"?>
<!DOCTYPE svg PUBLIC "-//W3C//DTD SVG 1.1//EN" "http://www.w3.org/Graphics/SVG/1.1/DTD/svg11.dtd">
<!-- Creator: CorelDRAW 2020 (64-Bit) -->
<svg xmlns="http://www.w3.org/2000/svg" xml:space="preserve" width="73px" height="72px" version="1.1" shape-rendering="geometricPrecision" text-rendering="geometricPrecision" image-rendering="optimizeQuality" fill-rule="evenodd" clip-rule="evenodd"
viewBox="0 0 71.84 71.5"
 xmlns:xlink="http://www.w3.org/1999/xlink"
 xmlns:xodm="http://www.corel.com/coreldraw/odm/2003">
 <g id="Слой_x0020_1">
  <metadata id="CorelCorpID_0Corel-Layer"/>
  <g id="_1167929296592">
   <path fill="none" stroke="#242656" stroke-width="2.33" stroke-miterlimit="22.9256" d="M18.83 25.19l12.62 0 0 14.49c0,4.54 -3.7,8.24 -8.24,8.24l-2.32 0c-4.53,0 -8.24,-3.7 -8.24,-8.24l0 -8.31c0,-3.4 2.78,-6.18 6.18,-6.18z"/>
   <path fill="none" stroke="#242656" stroke-width="2.33" stroke-miterlimit="22.9256" d="M31.35 29.7c-0.51,2.88 -3.05,5.09 -6.08,5.09l-12.62 0 0 -3.48"/>
   <path fill="none" stroke="#242656" stroke-width="2.33" stroke-miterlimit="22.9256" d="M17.28 47.88l9.55 0c8.86,0 16.11,7.25 16.11,16.11l0 6.34 -41.77 0 0 -6.34c0,-8.86 7.24,-16.11 16.11,-16.11z"/>
   <polyline fill="none" stroke="#242656" stroke-width="2.33" stroke-miterlimit="22.9256" points="29.69,48.33 22.09,58.29 14.41,48.24 14.63,47.96 "/>
   <ellipse fill="#242656" cx="30.5" cy="61.86" rx="2.56" ry="0.64"/>
   <g>
    <circle fill="#242656" cx="17.8" cy="38.65" r="1.38"/>
    <circle fill="#242656" cx="26.2" cy="38.65" r="1.38"/>
   </g>
   <line fill="none" stroke="#242656" stroke-width="2.33" stroke-linecap="round" stroke-linejoin="round" stroke-miterlimit="22.9256" x1="37.36" y1="69.64" x2="37.36" y2= "60.5" />
   <line fill="none" stroke="#242656" stroke-width="2.33" stroke-linecap="round" stroke-linejoin="round" stroke-miterlimit="22.9256" x1="6.99" y1="69.64" x2="6.99" y2= "60.5" />
   <path fill="#FF2234" fill-rule="nonzero" d="M28.86 21.16l0 -14.19c0,-1.9 0.71,-3.63 1.85,-4.88 1.16,-1.29 2.78,-2.09 4.57,-2.09l11.87 0c-0.14,0.37 -0.22,0.78 -0.22,1.2 0,0.4 0.07,0.78 0.19,1.13l-11.84 0c-1.11,0 -2.12,0.5 -2.85,1.31 -0.76,0.84 -1.23,2.02 -1.23,3.33l0 14.19 -2.34 0zm24.69 -21.16l11.87 0c1.79,0 3.4,0.8 4.57,2.09 1.14,1.25 1.85,2.98 1.85,4.88l0 17.4c0,1.89 -0.71,3.62 -1.85,4.88 -1.16,1.28 -2.78,2.08 -4.57,2.08l-12.32 0 -10.75 9.09 0.02 -9.09 -7.09 0 -0.17 0 0 -2.33 0.17 0 9.41 0 -0.01 6.4 7.57 -6.4 13.17 0c1.11,0 2.12,-0.5 2.85,-1.31 0.76,-0.84 1.24,-2.02 1.24,-3.32l0 -17.4c0,-1.31 -0.48,-2.49 -1.24,-3.33 -0.73,-0.81 -1.74,-1.31 -2.85,-1.31l-11.84 0c0.12,-0.35 0.19,-0.73 0.19,-1.13 0,-0.42 -0.08,-0.83 -0.22,-1.2zm-2.43 0.44c-0.2,-0.2 -0.47,-0.32 -0.77,-0.32 -0.3,0 -0.57,0.12 -0.77,0.32 -0.19,0.19 -0.32,0.46 -0.32,0.76 0,0.31 0.13,0.58 0.32,0.77 0.2,0.2 0.47,0.32 0.77,0.32 0.3,0 0.57,-0.12 0.77,-0.32 0.2,-0.19 0.32,-0.46 0.32,-0.77 0,-0.3 -0.12,-0.57 -0.32,-0.76z"/>
   <path fill="#FF2234" fill-rule="nonzero" d="M48.79 20.33c0,-0.65 0.02,-1.18 0.06,-1.6 0.05,-0.42 0.14,-0.77 0.27,-1.07 0.13,-0.31 0.32,-0.61 0.59,-0.91 0.26,-0.3 0.63,-0.66 1.08,-1.07 0.63,-0.57 1.12,-1.09 1.47,-1.58 0.35,-0.49 0.6,-0.97 0.75,-1.43 0.14,-0.46 0.22,-0.93 0.22,-1.41 0,-0.94 -0.26,-1.66 -0.76,-2.17 -0.5,-0.51 -1.21,-0.76 -2.15,-0.76 -0.81,0 -1.49,0.22 -2.06,0.66 -0.56,0.44 -0.84,1.08 -0.84,1.93l-2.51 0 -0.04 -0.07c-0.02,-0.95 0.21,-1.79 0.67,-2.5 0.47,-0.71 1.12,-1.26 1.94,-1.65 0.83,-0.39 1.77,-0.58 2.84,-0.58 1.75,0 3.11,0.44 4.08,1.33 0.97,0.9 1.45,2.14 1.45,3.74 0,0.77 -0.12,1.46 -0.38,2.09 -0.25,0.62 -0.63,1.25 -1.14,1.88 -0.5,0.62 -1.14,1.32 -1.91,2.09 -0.31,0.32 -0.53,0.61 -0.67,0.88 -0.14,0.26 -0.24,0.56 -0.28,0.89 -0.04,0.33 -0.06,0.77 -0.06,1.31l-2.62 0zm-0.03 5.47l0 -2.77 2.73 0 0 2.77 -2.73 0z"/>
  </g>
 </g>
</svg>
