<?xml version="1.0" encoding="UTF-8"?>
<!DOCTYPE svg PUBLIC "-//W3C//DTD SVG 1.1//EN" "http://www.w3.org/Graphics/SVG/1.1/DTD/svg11.dtd">
<!-- Creator: CorelDRAW 2020 (64-Bit) -->
<svg xmlns="http://www.w3.org/2000/svg" xml:space="preserve" width="91px" height="76px" version="1.1" shape-rendering="geometricPrecision" text-rendering="geometricPrecision" image-rendering="optimizeQuality" fill-rule="evenodd" clip-rule="evenodd"
viewBox="0 0 91 75.68"
 xmlns:xlink="http://www.w3.org/1999/xlink"
 xmlns:xodm="http://www.corel.com/coreldraw/odm/2003">
 <g id="Слой_x0020_1">
  <metadata id="CorelCorpID_0Corel-Layer"/>
  <g id="_1167497097920">
   <path fill="none" stroke="#242656" stroke-width="2.37" stroke-miterlimit="22.9256" d="M41.18 24.75l13.92 0 0 15.97c0,5 -4.09,9.08 -9.08,9.08l-2.57 0c-4.99,0 -9.07,-4.08 -9.07,-9.08l0 -9.16c0,-3.75 3.06,-6.81 6.8,-6.81z"/>
   <path fill="none" stroke="#242656" stroke-width="2.37" stroke-miterlimit="22.9256" d="M54.99 29.72c-0.57,3.18 -3.37,5.61 -6.71,5.61l-13.91 0 0 -3.84"/>
   <path fill="none" stroke="#242656" stroke-width="2.37" stroke-miterlimit="22.9256" d="M39.47 49.75l10.53 0c9.76,0 17.75,7.99 17.75,17.76l0 6.98 -46.03 0 0 -6.98c0,-9.77 7.99,-17.76 17.75,-17.76z"/>
   <polyline fill="none" stroke="#242656" stroke-width="2.37" stroke-miterlimit="22.9256" points="53.15,50.15 44.77,58.53 36.32,50.07 36.55,49.84 "/>
   <circle fill="#242656" cx="44.74" cy="69.1" r="1.41"/>
   <line fill="none" stroke="#242656" stroke-width="2.37" stroke-linecap="round" stroke-linejoin="round" stroke-miterlimit="22.9256" x1="22.24" y1="69.1" x2="38.84" y2= "69.1" />
   <circle fill="#242656" cx="67.77" cy="45.62" r="1.41"/>
   <path fill="#FF2234" fill-rule="nonzero" stroke="#E31E24" stroke-width="0.42" stroke-miterlimit="22.9256" d="M81.19 45.05l0 0.01 0 0.05 0 0.04 0 0.02c0.02,0.98 0.42,1.86 1.06,2.5 0.66,0.66 1.57,1.07 2.57,1.07 1,0 1.91,-0.41 2.56,-1.07 0.66,-0.65 1.07,-1.56 1.07,-2.56 0,-1 -0.41,-1.91 -1.07,-2.57 -0.65,-0.65 -1.56,-1.06 -2.56,-1.06 -1,0 -1.91,0.41 -2.57,1.06 -0.64,0.64 -1.04,1.53 -1.06,2.51zm-2.23 1.23l-4.92 0c-0.65,0 -1.18,-0.53 -1.18,-1.17 0,-0.65 0.53,-1.17 1.18,-1.17l4.92 0c0.23,-1.18 0.82,-2.24 1.63,-3.06 1.09,-1.08 2.58,-1.75 4.23,-1.75 1.65,0 3.14,0.67 4.22,1.75 1.08,1.08 1.75,2.58 1.75,4.23 0,1.65 -0.67,3.14 -1.75,4.22 -1.08,1.08 -2.57,1.75 -4.22,1.75 -1.65,0 -3.14,-0.67 -4.23,-1.75 -0.81,-0.82 -1.4,-1.87 -1.63,-3.05z"/>
   <path fill="#FF2234" fill-rule="nonzero" stroke="#E31E24" stroke-width="0.42" stroke-miterlimit="22.9256" d="M70.42 19.94l0.01 0.01 0.03 0.03 0.03 0.04 0.01 0.01c0.7,0.68 1.62,1.02 2.52,1.02 0.93,0 1.86,-0.36 2.57,-1.06 0.71,-0.71 1.06,-1.64 1.06,-2.57 0,-0.93 -0.35,-1.86 -1.06,-2.57 -0.71,-0.7 -1.64,-1.06 -2.57,-1.06 -0.92,0 -1.85,0.36 -2.56,1.06 -0.71,0.71 -1.06,1.64 -1.06,2.57 0,0.91 0.34,1.82 1.02,2.52zm-0.71 2.45l-3.48 3.48c-0.46,0.46 -1.2,0.46 -1.66,0 -0.46,-0.45 -0.46,-1.2 0,-1.65l3.48 -3.49c-0.67,-1 -1,-2.15 -1,-3.31 0,-1.53 0.59,-3.06 1.75,-4.22 1.17,-1.17 2.7,-1.75 4.22,-1.75 1.53,0 3.06,0.58 4.23,1.75 1.16,1.16 1.75,2.69 1.75,4.22 0,1.53 -0.58,3.06 -1.75,4.22 -1.17,1.17 -2.7,1.75 -4.23,1.75 -1.15,0 -2.31,-0.33 -3.31,-1z"/>
   <path fill="#FF2234" fill-rule="nonzero" stroke="#E31E24" stroke-width="0.42" stroke-miterlimit="22.9256" d="M45.05 9.81l0.01 0 0.05 0 0.04 0 0.02 0c0.98,-0.02 1.86,-0.42 2.5,-1.06 0.66,-0.66 1.07,-1.57 1.07,-2.57 0,-1 -0.41,-1.91 -1.07,-2.56 -0.65,-0.66 -1.56,-1.07 -2.56,-1.07 -1,0 -1.91,0.41 -2.57,1.07 -0.65,0.65 -1.06,1.56 -1.06,2.56 0,1 0.41,1.91 1.06,2.57 0.64,0.64 1.53,1.04 2.51,1.06zm1.23 2.23l0 4.92c0,0.65 -0.53,1.18 -1.17,1.18 -0.65,0 -1.17,-0.53 -1.17,-1.18l0 -4.92c-1.18,-0.23 -2.24,-0.82 -3.06,-1.63 -1.08,-1.09 -1.75,-2.58 -1.75,-4.23 0,-1.65 0.67,-3.14 1.75,-4.22 1.08,-1.08 2.58,-1.75 4.23,-1.75 1.65,0 3.14,0.67 4.22,1.75 1.08,1.08 1.75,2.57 1.75,4.22 0,1.65 -0.67,3.14 -1.75,4.23 -0.82,0.81 -1.87,1.4 -3.05,1.63z"/>
   <path fill="#FF2234" fill-rule="nonzero" stroke="#E31E24" stroke-width="0.42" stroke-miterlimit="22.9256" d="M19.94 20.58l0.01 -0.01 0.03 -0.03 0.04 -0.03 0.01 -0.01c0.68,-0.7 1.02,-1.62 1.02,-2.52 0,-0.93 -0.36,-1.86 -1.06,-2.57 -0.71,-0.71 -1.64,-1.06 -2.57,-1.06 -0.93,0 -1.86,0.35 -2.57,1.06 -0.7,0.71 -1.06,1.64 -1.06,2.57 0,0.92 0.36,1.85 1.06,2.56 0.71,0.71 1.64,1.06 2.57,1.06 0.91,0 1.82,-0.34 2.52,-1.02zm2.45 0.71l3.48 3.48c0.46,0.46 0.46,1.2 0,1.66 -0.45,0.46 -1.2,0.46 -1.65,0l-3.49 -3.48c-1,0.67 -2.15,1 -3.31,1 -1.53,0 -3.06,-0.59 -4.22,-1.75 -1.17,-1.17 -1.75,-2.7 -1.75,-4.22 0,-1.53 0.58,-3.06 1.75,-4.23 1.16,-1.16 2.69,-1.75 4.22,-1.75 1.53,0 3.06,0.58 4.22,1.75 1.17,1.17 1.75,2.7 1.75,4.23 0,1.15 -0.33,2.31 -1,3.31z"/>
   <path fill="#FF2234" fill-rule="nonzero" stroke="#E31E24" stroke-width="0.42" stroke-miterlimit="22.9256" d="M9.81 45.95l0 -0.01 0 -0.05 0 -0.04 0 -0.02c-0.02,-0.98 -0.42,-1.86 -1.06,-2.5 -0.66,-0.66 -1.57,-1.07 -2.57,-1.07 -1,0 -1.91,0.41 -2.56,1.07 -0.66,0.65 -1.07,1.56 -1.07,2.56 0,1 0.41,1.91 1.07,2.57 0.65,0.65 1.56,1.06 2.56,1.06 1,0 1.91,-0.41 2.57,-1.06 0.64,-0.64 1.04,-1.53 1.06,-2.51zm2.23 -1.23l4.92 0c0.65,0 1.18,0.53 1.18,1.17 0,0.65 -0.53,1.17 -1.18,1.17l-4.92 0c-0.23,1.18 -0.82,2.24 -1.63,3.06 -1.09,1.08 -2.58,1.75 -4.23,1.75 -1.65,0 -3.14,-0.67 -4.22,-1.75 -1.08,-1.08 -1.75,-2.58 -1.75,-4.23 0,-1.65 0.67,-3.14 1.75,-4.22 1.08,-1.08 2.57,-1.75 4.22,-1.75 1.65,0 3.14,0.67 4.23,1.75 0.81,0.82 1.4,1.87 1.63,3.05z"/>
  </g>
 </g>
</svg>
