<?xml version="1.0" encoding="UTF-8"?>
<!DOCTYPE svg PUBLIC "-//W3C//DTD SVG 1.1//EN" "http://www.w3.org/Graphics/SVG/1.1/DTD/svg11.dtd">
<!-- Creator: CorelDRAW 2020 (64-Bit) -->
<svg xmlns="http://www.w3.org/2000/svg" xml:space="preserve" width="253.89mm" height="191.461mm" version="1.1" shape-rendering="geometricPrecision" text-rendering="geometricPrecision" image-rendering="optimizeQuality" fill-rule="evenodd" clip-rule="evenodd"
viewBox="0 0 26578.03 20042.74"
 xmlns:xlink="http://www.w3.org/1999/xlink"
 xmlns:xodm="http://www.corel.com/coreldraw/odm/2003">
 <g id="Слой_x0020_1">
  <metadata id="CorelCorpID_0Corel-Layer"/>
  <g id="_2584399958512">
   <g>
    <path fill="none" d="M1674.8 12407.9c-1427.78,-927.83 -2180.38,-2552.58 -1292.55,-4579.32 211.61,-483.04 683.13,-1191.31 701.67,-1218.69 2.23,-2.14 293.21,-443.15 295.44,-443.15 2221.35,-3383.97 5860.61,-5247.74 10629.04,-6005.36 5729.12,-910.26 10467.59,2197.93 12599.88,5119.04 837.33,1147.1 1486.33,2128.73 1809.57,3914.58 3.66,3.43 509.41,2552.69 -295.44,5096.32 -870.2,2750.2 -3884.79,6488.86 -8820.71,5624.65 -2503.39,-438.32 -4103.99,-2302.15 -5914.33,-2965.69 -865.47,-396.7 -995.73,-481.2 -1920.34,-886.32 -11.58,-4.92 -809.35,-372.86 -812.47,-369.29 -1526.28,-652.38 -3237.68,-1341.86 -4763.96,-1994.23 -954.11,-477.07 -1970.36,-1115.45 -2215.8,-1292.55z"/>
   </g>
  </g>
 </g>
</svg>
